<svg width="120" height="120" viewBox="0 0 120 120" fill="none" xmlns="http://www.w3.org/2000/svg">
<path d="M60 5.21739C61.4776 5.21739 62.8635 5.78804 63.9029 6.83764L113.162 56.0971C115.323 58.2473 115.323 61.7527 113.162 63.9029L63.9029 113.162C62.8635 114.212 61.4776 114.783 60 114.783C58.5224 114.783 57.1366 114.212 56.0971 113.162L6.83764 63.9029C4.67731 61.7527 4.67731 58.2473 6.83764 56.0971L38.9776 23.9572L44.9083 29.8879C43.4817 35.1868 44.9185 40.9647 48.9334 44.9796C49.8913 45.9375 50.9817 46.7629 52.1739 47.4457V72.5645C47.4253 75.3057 44.3478 80.411 44.3478 86.087C44.3478 94.7181 51.3689 101.739 60 101.739C68.6311 101.739 75.6522 94.7181 75.6522 86.087C75.6522 80.411 72.5747 75.3057 67.8261 72.5645V52.8057L70.9952 55.9749C69.5686 61.2738 71.0054 67.0516 75.0204 71.0666C77.9755 74.0217 81.909 75.6522 86.087 75.6522C90.265 75.6522 94.1984 74.0217 97.1535 71.0666C103.257 64.9626 103.257 55.0374 97.1535 48.9334C94.2086 45.9884 90.3057 44.3682 86.1379 44.3682C84.7622 44.3682 83.3866 44.5516 82.0618 44.9083L75.0917 37.9382C76.5183 32.6393 75.0815 26.8614 71.0666 22.8465C68.1216 19.9015 64.2188 18.2813 60.051 18.2813C58.6753 18.2813 57.2996 18.4647 55.9749 18.8213L50.0442 12.8906L56.0971 6.83764C57.1366 5.78804 58.5224 5.21739 60 5.21739ZM60 0C57.2486 0 54.4973 1.04959 52.4083 3.14878L42.6664 12.8906L54.7215 24.9457C56.3621 23.9878 58.2065 23.4986 60.051 23.4986C62.7004 23.4986 65.3499 24.5075 67.3777 26.5353C70.8118 29.9694 71.3111 35.1868 68.9572 39.1814L80.8084 51.0326C82.4491 50.0747 84.2935 49.5856 86.1379 49.5856C88.7874 49.5856 91.4368 50.5944 93.4647 52.6223C97.5408 56.6984 97.5408 63.3016 93.4647 67.3777C91.4266 69.4158 88.7568 70.4348 86.087 70.4348C83.4171 70.4348 80.7473 69.4158 78.7092 67.3777C75.2751 63.9436 74.7758 58.7262 77.1298 54.7215L65.2785 42.8702C64.4327 43.3696 63.536 43.7364 62.6087 43.9708V76.019C67.1026 77.1807 70.4348 81.2262 70.4348 86.087C70.4348 91.8546 65.7677 96.5217 60 96.5217C54.2425 96.5217 49.5652 91.8546 49.5652 86.087C49.5652 81.2262 52.8974 77.1807 57.3913 76.019V43.9708C55.6488 43.5224 53.9878 42.6563 52.6223 41.2908C49.1882 37.8567 48.6889 32.6393 51.0428 28.6447L38.9776 16.5795L3.14878 52.4083C-1.04959 56.5965 -1.04959 63.4035 3.14878 67.5917L52.4083 116.851C54.4973 118.95 57.2486 120 60 120C62.7514 120 65.5027 118.95 67.5917 116.851L116.851 67.5917C121.05 63.4035 121.05 56.5965 116.851 52.4083L67.5917 3.14878C65.5027 1.04959 62.7514 0 60 0Z" fill="#212121"/>
</svg>
