<svg width="120" height="120" viewBox="0 0 120 120" fill="none" xmlns="http://www.w3.org/2000/svg">
<path d="M88.7125 0C82.86 0 77.7924 1.43682 74.2832 2.85326C70.8412 1.80368 65.1345 0.0102 58.2843 1.30435C54.2929 1.93615 50.6267 3.43411 47.2633 5.72689C41.7248 3.30162 35.9396 1.81385 29.8741 1.56929C26.1407 1.30435 10.9266 2.87363 5.46651 10.1698C3.45963 13.0434 1.45276 16.6916 0.589469 21.1243C-0.273819 25.0373 -0.27382 29.4803 1.16126 38.6107C2.02455 44.8675 3.17936 49.0455 5.758 57.6461C6.0495 58.4307 7.48458 62.6087 11.7898 74.0931C12.6419 76.1719 14.3685 80.0849 17.8105 83.733C20.1088 86.3417 22.4072 87.911 25.2774 87.911C29.0108 87.911 31.5895 85.5672 33.8879 82.9585C34.056 82.7853 34.2354 82.5917 34.4036 82.4185C34.1906 82.7242 34 83.0604 33.8879 83.4782C33.3161 86.0869 36.758 88.1759 39.6282 89.2153C41.9265 90.2547 44.5052 90.5197 46.5121 90.5197C49.0908 90.5197 51.1088 90 52.2524 89.7452C53.2391 89.4395 55.3693 88.6039 57.6452 87.2283C57.7461 93.8927 57.8134 101.76 57.9928 103.563C58.856 110.35 60.8629 115.037 64.5964 117.646C67.4665 119.735 72.6351 120 72.9266 120C78.0839 120 86.1226 116.872 89.5646 111.919C91.2911 109.565 91.8629 107.476 92.4347 104.603C93.0065 103.043 93.5783 93.913 93.8698 92.089C94.2622 89.2052 94.5649 86.3621 94.8676 83.6005C96.7624 84.0489 99.0944 84.5279 101.628 84.5279C106.214 84.5279 112.246 81.6542 113.389 81.1243C115.688 79.5652 120.273 75.9171 118.266 72.7887C117.123 70.9545 115.396 70.9545 111.091 71.4844C111.091 71.4844 104.207 72.2588 103.624 71.9939C103.209 71.8512 102.57 71.4844 101.852 71.0054C103.344 68.9062 104.667 66.8274 106.214 64.9626C109.656 58.9606 111.674 54.2629 113.109 50.6148C115.688 44.0931 117.123 38.8655 117.975 35.2174C119.993 27.3913 120.565 23.7432 119.41 19.5652C117.123 12.2588 108.792 6.00203 105.35 4.17798C103.052 3.1284 97.323 0 88.7125 0ZM88.7125 5.21739C95.8879 5.21739 100.765 7.82608 103.344 8.86549C106.505 10.4348 113.681 15.6522 114.252 20.6046C114.544 23.4783 114.824 26.3519 112.817 33.913C111.674 37.5611 110.519 42.2588 107.929 48.7806C106.494 52.4287 104.779 56.8716 101.337 62.3539C101.247 62.4864 101.146 62.6291 101.056 62.7717C101.393 61.6712 101.628 60.7847 101.628 60.7847C102.2 58.176 102.2 56.087 101.909 52.9586C101.617 51.3893 101.337 47.4762 101.337 45.907C101.337 45.1325 102.189 37.0415 102.48 34.1678C102.772 29.4803 99.6102 23.733 98.7581 22.6936C94.4529 16.6916 92.1545 13.3084 87.5577 9.9151C86.4142 9.02856 84.4521 7.55097 81.7838 6.06321C83.8916 5.59445 86.2235 5.21739 88.7125 5.21739ZM63.3519 6.28737C67.0966 6.36889 70.2695 7.30641 72.6351 8.09105C78.6669 9.9151 82.3892 12.7786 84.1158 14.0829C87.8492 16.9565 89.8561 19.8302 94.1613 25.8322C94.4753 26.4029 95.2937 27.6155 95.944 29.3071C90.0691 28.818 86.1675 30.693 83.8242 32.6087C80.3823 35.2174 80.6626 39.1305 80.9541 41.9939C80.9541 44.0829 81.5371 46.7018 85.8423 55.5673C87.5577 59.4804 89.2731 63.6482 90.9997 66.5218C91.8966 68.142 92.9953 69.6298 94.1726 70.9545C93.4886 71.2704 92.7935 71.678 92.1433 72.2589C90.4279 74.0829 90.1364 75.9172 89.5646 79.3105C88.9928 81.9192 88.421 87.3914 88.1295 91.8241C88.1295 93.6482 87.2774 102.524 86.9859 103.828C86.1226 106.437 85.8311 107.741 84.6876 109.311C82.6807 112.174 76.3686 114.528 72.6351 114.263C71.4915 114.263 69.7649 114.263 68.3299 113.224C65.1682 111.135 64.0246 106.437 63.7331 102.789C63.4416 100.18 63.7331 81.3894 63.1613 77.2113C62.8698 76.1719 62.5895 73.5632 60.2912 71.7392C59.327 71.0055 57.3313 70.6285 55.4478 70.3737C55.4702 69.4973 55.5262 68.621 55.7056 67.8261C55.9859 66.2569 56.5577 65.4722 57.1407 64.1679C57.421 63.3934 57.9928 62.354 58.5758 61.0497C61.1544 53.7433 60.5714 44.083 59.1363 38.0809C58.856 37.5612 57.7013 33.3934 53.6875 31.0497C49.3823 28.6957 44.7855 30.0001 42.2069 30.7847C41.1418 31.0497 40.0879 31.4675 39.034 31.9566C39.2134 30.8663 39.3703 29.7657 39.6282 28.6957C40.7718 23.4784 41.9266 19.0456 45.66 14.6129C49.6738 10.1699 54.2593 7.30649 59.4278 6.52184C60.7956 6.32822 62.1074 6.2568 63.3519 6.28737ZM27.9121 6.74593C28.5848 6.73573 29.1566 6.74593 29.5826 6.7867C34.0672 7.00069 38.3613 7.95858 42.6217 9.58902C42.0947 10.1189 41.5678 10.6488 41.0633 11.2194C36.1862 16.4368 35.0314 21.909 33.8879 27.3913C32.4528 33.9131 32.1613 40.6896 33.3049 47.4762L32.7443 52.4287C32.4528 55.0374 31.8698 60 35.0315 65.2174C36.1414 66.9497 37.3635 68.4171 38.7089 69.6705C35.7939 73.176 32.6995 76.4878 29.5826 79.5652C27.8561 81.3893 26.421 82.6936 25.2774 82.6936C24.9859 82.6936 23.8423 82.1739 22.1157 80.3499C18.9541 77.2215 17.8105 73.8281 17.2387 72.5238C13.7967 63.1284 11.7899 57.1264 11.4984 56.3417C9.19999 47.9959 8.0564 43.8282 6.90162 37.8261C5.46654 29.4803 5.46654 25.3023 6.32983 21.9192C7.19312 18.2609 8.6282 15.3872 10.0633 13.3084C13.5837 8.28467 23.2481 6.858 27.9121 6.74593ZM93.7689 34.2391C94.6882 34.2391 95.6861 34.341 96.74 34.5448C96.7063 36.9803 95.5964 44.623 95.5964 45.6522C95.5964 47.7412 96.1682 51.909 96.1682 53.4782C96.4597 56.3519 96.4597 57.911 96.1682 60C96.1682 60 95.7421 61.8648 95.3049 63.1895C93.9707 60.4484 92.4908 57.1773 90.7082 53.4782C86.4029 44.6128 86.1226 42.7887 86.1226 41.4844C86.1226 39.6501 86.1226 37.3064 87.838 36.267C89.4525 34.9626 91.4144 34.2595 93.7689 34.2391ZM49.2141 35.0034C49.7859 35.0645 50.3128 35.2174 50.8173 35.4721C53.1157 36.5217 53.6875 39.1304 53.6875 39.1304C55.1226 44.8675 55.6944 53.4782 53.396 59.2153C53.1157 60.2548 52.544 61.0394 52.2524 61.824C51.6806 63.1284 51.1088 64.4327 50.5259 66.7765C50.3801 67.7446 50.3128 68.7024 50.2792 69.6603C48.2947 69.2833 46.4224 68.6413 45.077 67.8261C42.7786 66.7867 41.0633 64.9525 39.9197 62.8635C37.9016 58.9504 38.1931 55.3023 38.4846 53.2235L39.0452 47.2113C38.6416 44.2765 38.451 41.3315 38.4958 38.407C39.8188 37.3777 41.5454 36.3282 43.9334 35.7371C45.66 35.3499 47.5436 34.8098 49.2141 35.0034ZM91.5378 36.7561C90.7866 36.7867 89.9906 36.9089 89.5646 37.0414C88.421 37.3064 88.1295 37.3064 87.838 37.8261C87.5577 38.3458 88.421 39.1304 88.7125 39.6501C88.9928 39.6501 89.8561 40.4348 90.9997 40.18C91.863 39.9151 92.4348 39.3954 92.7262 39.1305C93.0177 38.8655 94.1613 37.5612 93.298 37.0415C93.0066 36.7765 92.289 36.7153 91.5378 36.7561ZM48.5638 38.6515C48.2499 38.6719 47.9472 38.7432 47.6557 38.8757C47.3754 38.8757 46.8036 39.1305 46.5121 39.6502C46.2206 40.1699 46.5121 40.6896 46.8036 40.9545C47.3754 41.7391 48.2386 42.5238 49.6737 42.5238C49.9652 42.5238 51.1088 42.5238 51.9609 41.7391C51.9609 41.7391 52.8354 40.9545 52.8354 40.18C52.5439 39.6502 51.9721 39.3954 51.1088 39.1305C50.4586 38.9368 49.4944 38.5903 48.5638 38.6515ZM43.2832 72.7887C45.0434 73.6447 47.1624 74.3376 49.4832 74.8165C48.8666 75.9375 47.9808 76.8648 47.0951 77.4762C45.077 78.7805 42.4984 79.5652 39.9197 80.0849C39.3367 80.0849 39.0564 80.3498 38.4846 80.3498C37.0944 80.7065 35.749 81.1039 34.8296 81.97C37.6437 79.127 40.4691 75.9884 43.2832 72.7887ZM98.6235 74.8777C99.8792 75.7337 101.112 76.3655 102.189 76.7018C103.915 77.2215 105.35 77.2215 110.519 76.7018C109.656 77.4762 107.077 78.7806 103.344 79.3105C100.944 79.5245 97.962 79.0047 95.5403 78.373C95.7646 76.8954 96.0224 76.0496 96.4485 75.6522C96.6054 75.5197 97.5584 75.2547 98.6235 74.8777ZM55.4029 75.6624C55.9971 75.7541 56.468 75.8254 56.5577 75.9069C57.1295 76.4368 57.421 77.7412 57.421 78.2608C57.4546 78.7092 57.477 79.8403 57.4994 80.625C55.1338 83.142 51.3331 84.538 50.5258 84.7826C49.3822 85.3023 45.9403 85.822 42.4983 84.7826C45.3685 83.9979 48.2387 83.2235 50.5259 81.6542C52.5327 80.3498 54.2593 78.271 55.4029 75.6624Z" fill="#212121"/>
</svg>
