<svg width="120" height="70" viewBox="0 0 120 70" fill="none" xmlns="http://www.w3.org/2000/svg">
<path d="M74.8067 0.00138448C73.6817 -0.0290001 72.6974 0.436854 72.1912 1.78376C71.3288 4.04209 73.4755 6.24982 74.2442 7.40431C74.7786 8.20434 75.4722 9.10566 75.8566 10.007C76.1097 10.6045 76.1472 11.202 76.3628 11.8299C76.8972 13.3793 77.7502 15.1414 78.4345 16.5795C78.7814 17.3086 79.1657 18.0682 79.6063 18.7163C79.8782 19.1113 80.3375 19.2936 80.4125 19.9012C79.9625 20.5898 79.9344 21.6532 79.6813 22.5241C78.5377 26.4231 78.9689 31.2739 80.6281 34.1501C81.1437 35.0412 82.353 36.935 84.0028 36.216C85.4465 35.578 85.1277 33.6032 85.5402 31.8512C85.634 31.4664 85.5777 31.1727 85.7652 30.9094V30.9904C86.1964 31.9424 86.637 32.8943 87.0776 33.8361C88.0619 35.5375 89.7962 37.3097 91.2585 38.5149C92.0179 39.1326 92.6178 40.2061 93.6021 40.5707V40.4897H93.5271C93.3396 40.1656 93.0397 40.034 92.7959 39.7808C92.2241 39.1732 91.5866 38.4136 91.1179 37.7148C89.7774 35.7603 88.5962 33.6134 87.5276 31.3854C87.012 30.322 86.562 29.1473 86.1308 28.0637C85.9621 27.6384 85.9621 27.0105 85.6152 26.7877C85.1372 27.5877 84.4435 28.2257 84.0779 29.1676C83.4967 30.6664 83.4123 32.4994 83.1967 34.3932C83.0654 34.4438 83.1217 34.4033 83.0561 34.4742C82.0343 34.2007 81.6687 33.0665 81.2937 32.0943C80.3376 29.6334 80.1501 25.6636 81.0031 22.8381C81.2187 22.0988 82.203 19.7899 81.8093 19.1113C81.6219 18.4328 80.9844 18.048 80.6376 17.5315C80.197 16.8935 79.7658 16.053 79.4658 15.3137C78.6784 13.3895 77.9378 11.1616 77.1035 9.21717C76.7098 8.28549 76.0442 7.35378 75.4911 6.52336C74.8818 5.61193 74.2068 4.94355 73.7288 3.82956C73.5694 3.44472 73.335 2.81686 73.5882 2.41177C73.6631 2.13834 73.7757 2.02694 74.0287 1.93581C74.4506 1.58136 75.6317 2.04721 76.0817 2.24974C77.2535 2.77636 78.2378 3.28271 79.2315 3.99162C79.7095 4.33593 80.1876 4.9942 80.7688 5.18662H81.4251C82.4656 5.43981 83.6186 5.2575 84.5748 5.58157C86.2809 6.13855 87.8089 7.00949 89.187 7.95131C93.4147 10.8274 96.8739 14.9289 99.2268 19.8203C99.6111 20.6102 99.7799 21.3698 100.117 22.2002C100.783 23.8813 101.636 25.6231 102.311 27.2637C102.976 28.9145 103.633 30.5652 104.579 31.9323C105.076 32.6514 107.007 33.0463 107.879 33.4413C108.489 33.7248 109.501 34.0185 110.073 34.3932C111.188 35.1122 112.257 35.9731 113.298 36.7731C113.822 37.1681 115.416 38.0289 115.5 38.7479C112.923 38.677 110.954 38.9302 109.276 39.6999C108.798 39.9227 108.029 39.9227 107.954 40.5708C108.207 40.8645 108.254 41.3101 108.46 41.6746C108.864 42.3734 109.538 43.3152 110.148 43.8115C110.813 44.3482 111.488 44.9255 112.201 45.4014C113.457 46.2217 114.863 46.6977 116.082 47.5281C116.794 48.0243 117.516 48.6421 118.21 49.189C118.557 49.4725 118.782 49.8979 119.231 50.07V49.989C118.997 49.6649 118.941 49.2194 118.725 48.8851L117.76 47.8421C116.832 46.5154 115.65 45.3407 114.394 44.3685C113.391 43.5887 111.151 42.5355 110.738 41.2797L110.663 41.1987C111.366 41.1177 112.201 40.8341 112.857 40.6417C113.963 40.3278 114.938 40.4088 116.072 40.0948C116.588 39.9328 117.104 39.7708 117.619 39.6189V39.2948C117.047 38.6669 116.635 37.8162 116.007 37.239C114.366 35.73 112.576 34.2211 110.729 32.9653C109.707 32.2666 108.442 31.8109 107.364 31.2235C106.998 31.021 106.361 30.9197 106.117 30.5855C105.545 29.8057 105.236 28.8133 104.795 27.9018C103.876 25.9878 102.977 23.9016 102.161 21.8863C101.608 20.5191 101.242 19.1621 100.549 17.9266C97.2207 12.0225 93.6397 8.44762 88.0902 4.94365C86.909 4.19425 85.4935 3.91068 83.9936 3.52587C83.1781 3.4651 82.3813 3.41447 81.5657 3.36383C81.0782 3.14103 80.5626 2.49289 80.1033 2.16883C78.9503 1.38904 76.6815 0.0317691 74.8067 0.00138448ZM82.7467 8.58918C82.2123 8.57904 81.828 8.66006 81.4249 8.75121V8.83223H81.4999C81.753 9.39935 82.2123 9.76394 82.5311 10.25C82.7748 10.807 83.0091 11.364 83.2529 11.921L83.3279 11.84C83.7778 11.4957 83.9934 10.9387 83.9934 10.0981C83.806 9.89561 83.7778 9.63229 83.6278 9.38924C83.4122 9.05503 83.0091 8.87272 82.7467 8.58918ZM4.49029 41.4719C3.76847 41.5023 2.98102 41.6542 2.12796 41.9479C0.703073 42.4137 0 43.3353 0 45.2088V64.8149H4.80901V45.6848L11.4741 62.04C12.299 64.0756 13.424 64.8047 15.6269 64.8047C17.8392 64.8047 18.9173 64.0756 19.7422 62.04L26.4073 46.1V64.8149H31.2069V45.2088C31.2069 43.3352 30.5132 42.4137 29.079 41.9478C25.6667 40.7832 23.37 41.7858 22.3389 44.3075L15.4957 60.9362L8.87743 44.3075C8.12749 42.4137 6.62761 41.3808 4.49029 41.4719ZM62.9951 41.482C61.1015 41.482 55.2051 41.7251 55.2051 46.6671V49.8673C55.2051 52.1358 57.0518 53.989 61.0546 54.4448C61.5046 54.4752 61.9545 54.5157 62.4045 54.5157C62.4045 54.5157 67.0729 54.4144 67.2041 54.4448C69.9039 54.4448 69.6039 56.7132 69.6039 57.0373V59.6299C69.6039 59.9843 69.5289 62.2224 67.176 62.2224H55.2051V64.8149H67.2229C68.7977 64.8149 70.3258 64.4605 71.5444 63.8427C73.5692 62.8402 74.4036 61.4831 74.4036 59.7007V55.9942C74.4036 52.0142 69.8289 51.8522 67.2041 51.8522H62.4045C60.5203 51.8522 60.2297 50.6167 60.0047 49.2597V46.6671C60.2297 45.6342 60.6515 44.2366 62.3201 44.0746H74.4036V41.482H62.9951ZM81.5561 41.482C78.0127 42.0087 76.7659 43.9126 76.7659 46.6671V59.6298C76.7659 62.1515 78.0689 63.6705 80.75 64.4605C81.6499 64.7339 82.4654 64.8453 83.2341 64.8453L88.5775 64.8149H91.7178L94.3895 67.4075H99.7891L96.0769 63.7921C97.8205 63.0123 98.3642 61.8173 98.3642 59.5792V46.6671C98.3642 43.9126 96.705 42.0087 93.1615 41.482H81.5561ZM100.801 41.482V59.5184C100.801 62.6477 102.442 64.4098 106.782 64.7643C107.185 64.7845 107.598 64.8149 108.001 64.8149H120V62.2224H108.91C106.435 62.2224 105.601 61.0983 105.601 59.4982V41.482H100.801ZM84.4153 44.0746H90.5929C92.2241 44.0746 93.3208 45.4924 93.5646 46.6671C93.5646 46.6671 93.6021 58.7386 93.6021 59.6298C93.6021 60.521 93.1427 60.9261 93.1427 60.9261L91.8397 59.6298H86.4026L89.0743 62.2224H84.4153C82.7467 62.2224 81.8092 60.8856 81.5655 59.6298V46.9304C81.5655 45.5531 82.5404 44.0746 84.4153 44.0746ZM33.6068 49.2597C33.7005 49.3609 33.6068 60.3084 33.6068 60.521C33.6443 62.7895 36.3065 64.7744 40.4781 64.8149H48.0056V64.9871C48.0056 65.4732 48.3337 67.0935 45.6058 67.4075C45.5777 67.4075 33.6349 67.4075 33.6068 67.4075V70H46.1214C48.24 69.9291 52.8334 69.4126 52.8053 65.4428C52.8053 65.3719 52.824 49.2597 52.8053 49.2597H48.0056V62.2224C47.9306 62.2224 42.0623 62.2426 40.8812 62.2224C38.5658 62.1819 38.3689 60.7539 38.4064 60.2071V49.2597H33.6068Z" fill="#212121"/>
</svg>
