<svg width="59" height="51" viewBox="0 0 59 51" fill="none" xmlns="http://www.w3.org/2000/svg">
<path d="M34.3023 25.1771C34.3023 22.3939 31.9753 20.1374 29.1045 20.1374C26.2339 20.1374 23.9066 22.3939 23.9066 25.1771C23.9066 27.9606 26.2339 30.2171 29.1045 30.2171C31.9753 30.2171 34.3023 27.9606 34.3023 25.1771Z" fill="#AEAEAE"/>
<path fill-rule="evenodd" clip-rule="evenodd" d="M45.9858 15.8206C47.0835 11.4958 48.4633 3.47601 43.5993 0.757028C38.7581 -1.9501 32.4582 3.23724 29.1315 6.35095C25.8146 3.26827 19.3377 -1.8969 14.4778 0.830711C9.63845 3.54691 11.1308 11.4338 12.2528 15.7856C7.73851 17.0289 0 19.7065 0 25.1771C0 30.6323 7.73046 33.5454 12.218 34.7874C11.0919 39.1634 9.67425 46.9376 14.5198 49.6477C19.3977 52.3748 25.8545 47.3326 29.2119 44.1849C32.5599 47.3169 38.7994 52.3921 43.6415 49.6744C48.499 46.9481 47.2338 39.0357 46.1118 34.6585C50.4619 33.4139 58.209 30.5642 58.209 25.1771C58.209 19.759 50.429 17.0596 45.9858 15.8206ZM45.4345 32.3389C44.6977 30.0777 43.7033 27.6731 42.4869 25.1891C43.648 22.7638 44.6037 20.3902 45.3199 18.1435C48.5771 19.0591 55.7225 21.1518 55.7225 25.1771C55.7225 29.2402 48.8657 31.3527 45.4345 32.3389ZM42.3955 47.5878C38.7828 49.6154 33.4161 44.762 30.9436 42.4555C32.5838 40.716 34.223 38.6939 35.8227 36.4484C38.6369 36.2064 41.2954 35.8105 43.7064 35.2702C44.4962 38.3663 46.0243 45.551 42.3955 47.5878ZM15.7622 47.5588C12.149 45.5388 13.8005 38.6015 14.629 35.3781C17.0132 35.8894 19.6524 36.2573 22.4733 36.4791C24.0836 38.6764 25.7702 40.696 27.4699 42.4647C25.3699 44.4343 19.3923 49.5882 15.7622 47.5588ZM2.48647 25.1771C2.48647 21.0987 9.58908 19.0214 12.9205 18.108C13.6491 20.4052 14.6045 22.807 15.7576 25.2358C14.5896 27.7008 13.6205 30.1409 12.8852 32.465C9.70866 31.5835 2.48647 29.258 2.48647 25.1771ZM15.7236 2.91732C19.3516 0.881213 24.9808 5.83996 27.389 8.07189C25.6981 9.83255 24.027 11.837 22.4305 14.0215C19.6929 14.2675 17.0722 14.6627 14.663 15.1919C13.7591 11.682 12.0995 4.95123 15.7236 2.91732ZM37.6016 16.6421C39.4589 16.8694 41.2383 17.1716 42.9091 17.5416C42.4076 19.1004 41.7823 20.7304 41.0461 22.4014C39.9787 20.4377 38.8329 18.5136 37.6016 16.6421ZM29.1323 9.79483C30.2792 10.9995 31.4279 12.3448 32.5578 13.8042C30.2658 13.6992 27.97 13.6987 25.678 13.8027C26.8089 12.3568 27.9674 11.0135 29.1323 9.79483ZM17.1843 22.3996C16.4601 20.7344 15.8406 19.0971 15.3346 17.5161C16.9954 17.1557 18.7665 16.8612 20.6118 16.6376C19.377 18.5049 18.2332 20.4284 17.1843 22.3996ZM20.6649 33.8887C18.7585 33.6824 16.9607 33.4029 15.3003 33.0525C15.8143 31.4434 16.4475 29.771 17.1871 28.07C18.2505 30.0616 19.4117 32.0037 20.6649 33.8887ZM29.2011 40.7298C28.0225 39.4966 26.847 38.1329 25.6989 36.666C28.004 36.7538 30.3136 36.754 32.6183 36.6542C31.4848 38.1479 30.3402 39.5136 29.2011 40.7298ZM41.0698 27.9833C41.8478 29.7028 42.5036 31.3663 43.0245 32.9481C41.3367 33.3215 39.5146 33.6222 37.5946 33.8455C38.8351 31.9387 39.999 29.9846 41.0698 27.9833ZM34.435 34.1377C30.9092 34.382 27.3612 34.3794 23.8343 34.1577C21.8301 31.3192 20.0461 28.3341 18.5061 25.2351C20.0385 22.1425 21.8097 19.1632 23.8044 16.3292C27.334 16.0704 30.8853 16.0698 34.4149 16.3307C36.3924 19.1646 38.1608 22.1361 39.7289 25.2009C38.1794 28.292 36.3991 31.2772 34.435 34.1377ZM42.3573 2.84563C45.9862 4.87507 44.3709 12.0827 43.5781 15.2169C41.1633 14.6767 38.5408 14.2745 35.7952 14.0247C34.1957 11.8165 32.5384 9.80857 30.8748 8.07064C33.314 5.79064 38.7635 0.836051 42.3573 2.84563Z" fill="#AEAEAE"/>
</svg>
