<svg width="120" height="120" viewBox="0 0 120 120" fill="none" xmlns="http://www.w3.org/2000/svg">
<path d="M60 0C49.4124 0 42.2283 2.52717 37.663 6.19565C33.0978 9.86413 31.3043 14.5822 31.3043 18.5054V31.3043H57.3913V33.913H18.5054C13.7364 33.913 8.89607 35.9817 5.46196 40.3533C2.02784 44.7249 0 51.2466 0 60C0 68.7534 2.02784 75.2751 5.46196 79.6467C8.89607 84.0183 13.7364 86.087 18.5054 86.087H31.3043V101.495C31.3043 105.418 33.0978 110.136 37.663 113.804C42.2283 117.473 49.4124 120 60 120C70.5876 120 77.7717 117.473 82.337 113.804C86.9022 110.136 88.6957 105.418 88.6957 101.495V88.6957H62.6087V86.087H101.495C106.264 86.087 111.104 84.0183 114.538 79.6467C117.972 75.2751 120 68.7534 120 60C120 51.2466 117.972 44.7249 114.538 40.3533C111.104 35.9817 106.264 33.913 101.495 33.913H88.6957V18.5054C88.6957 14.4803 86.9124 9.75204 82.337 6.11413C77.7615 2.47623 70.5775 0 60 0ZM60 5.21739C69.7724 5.21739 75.6929 7.5 79.0761 10.1902C82.4593 12.8804 83.4783 16.0088 83.4783 18.5054V49.5652C83.4783 53.8859 79.9728 57.3913 75.6522 57.3913H44.3478C38.9776 57.3913 34.3512 60.7031 32.3641 65.3804C32.0278 66.1549 31.7222 66.9803 31.5489 67.8261C31.3757 68.6719 31.3043 69.538 31.3043 70.4348V80.8696H18.5054C15.1936 80.8696 12.1264 79.5754 9.61957 76.3859C7.11277 73.1963 5.21739 67.9382 5.21739 60C5.21739 52.0618 7.11277 46.8037 9.61957 43.6141C12.1264 40.4246 15.1936 39.1304 18.5054 39.1304H62.6087V26.087H36.5217V18.5054C36.5217 16.1719 37.5306 12.9925 40.9239 10.2717C44.3173 7.55095 50.2378 5.21739 60 5.21739ZM46.9565 13.0435C44.0829 13.0435 41.7391 15.3872 41.7391 18.2609C41.7391 21.1345 44.0829 23.4783 46.9565 23.4783C49.8302 23.4783 52.1739 21.1345 52.1739 18.2609C52.1739 15.3872 49.8302 13.0435 46.9565 13.0435ZM88.6957 39.1304H101.495C104.806 39.1304 107.874 40.4246 110.38 43.6141C112.887 46.8037 114.783 52.0618 114.783 60C114.783 67.9382 112.887 73.1963 110.38 76.3859C107.874 79.5754 104.806 80.8696 101.495 80.8696H57.3913V93.913H83.4783V101.495C83.4783 103.828 82.4694 107.007 79.0761 109.728C75.6827 112.449 69.7622 114.783 60 114.783C50.2378 114.783 44.3173 112.449 40.9239 109.728C37.5306 107.007 36.5217 103.828 36.5217 101.495V70.4348C36.5217 69.8947 36.5829 69.3954 36.6848 68.8859C37.4185 65.3193 40.5673 62.6087 44.3478 62.6087H75.6522C82.8159 62.6087 88.6957 56.7289 88.6957 49.5652V39.1304ZM73.0435 96.5217C70.1698 96.5217 67.8261 98.8655 67.8261 101.739C67.8261 104.613 70.1698 106.957 73.0435 106.957C75.9171 106.957 78.2609 104.613 78.2609 101.739C78.2609 98.8655 75.9171 96.5217 73.0435 96.5217Z" fill="#212121"/>
</svg>
