<svg width="55" height="55" viewBox="0 0 55 55" fill="none" xmlns="http://www.w3.org/2000/svg">
<rect x="3.39552" y="3.39551" width="47.5373" height="47.5373" fill="#AEAEAE"/>
<path d="M32.2575 42.9324L35.7575 40.6164C36.0317 41.4782 37.7687 43.5248 39.9627 43.5248C42.1567 43.5248 43.1754 42.3264 43.1754 41.532C43.1754 39.367 40.935 38.6037 39.859 38.2371C39.6835 38.1773 39.5391 38.1281 39.4403 38.0851C39.3897 38.063 39.313 38.0337 39.2147 37.9962C38.0179 37.5389 33.6026 35.852 33.6026 30.9623C33.6026 25.5764 38.8004 24.957 39.9757 24.957C40.7447 24.957 44.4422 25.0513 46.2836 28.5117L42.8881 30.8815C42.1437 29.3734 40.9068 28.8752 40.1455 28.8752C38.2649 28.8752 37.8731 30.254 37.8731 30.8815C37.8731 32.6424 39.9163 33.4317 41.6416 34.0981C42.0929 34.2725 42.5225 34.4384 42.8881 34.6112C44.7687 35.4999 47.5373 36.954 47.5373 41.532C47.5373 43.825 45.6141 47.5373 40.7724 47.5373C34.2687 47.5373 32.5448 43.6325 32.2575 42.9324Z" fill="white"/>
<path d="M15.2798 43.3922L18.9278 41.0775C19.2136 41.9388 20.3243 43.5268 21.936 43.5268C23.5476 43.5268 24.3725 41.8715 24.3725 41.0775V25.4664H28.8589V41.0775C28.9315 43.2308 27.7373 47.5373 22.4668 47.5373C17.6211 47.5373 15.6065 44.6573 15.2798 43.3922Z" fill="white"/>
</svg>
