<svg width="51" height="51" viewBox="0 0 51 51" fill="none" xmlns="http://www.w3.org/2000/svg">
<path d="M3.45252 0.394043L7.41543 44.8838L25.1975 49.8419L43.0292 44.8657L46.9952 0.394043H3.45252ZM38.7624 10.5869L37.4433 25.4079L37.4472 25.4879L37.4417 25.6719V25.6703L36.5045 36.0334L36.4012 36.9541L25.2239 40.0456V40.046L25.2152 40.0535L14.0572 36.9446L13.3017 28.3768H18.7733L19.1615 32.7334L25.2255 34.3769L25.2239 34.3801V34.3793L31.3103 32.7125L31.9535 25.6179H19.2301L19.1209 24.4186L18.8722 21.6089L18.7417 20.1002H32.4371L32.9353 14.5825H12.0759L11.9668 13.3839L11.7185 10.5735L11.5876 9.06475H38.8929L38.7624 10.5869Z" fill="#AEAEAE"/>
</svg>
