<svg width="100" height="130" viewBox="0 0 100 130" fill="none" xmlns="http://www.w3.org/2000/svg">
<path d="M26.5625 0C11.9298 0 0 10.5591 0 23.5106C0 32.6391 6.09353 40.3632 14.7156 44.2553C6.0935 48.1474 0 55.8715 0 65C0 74.1285 6.09353 81.8526 14.7156 85.7447C6.0935 89.6368 0 97.3609 0 106.489C0 119.441 11.9298 130 26.5625 130C41.1953 130 53.125 119.441 53.125 106.489V85.7447V76.496C57.3168 83.5367 65.4127 88.5106 75 88.5106C88.7701 88.5106 100 78.571 100 66.383C100 56.3654 92.2693 48.207 81.9214 45.4978C92.3548 42.3239 100 33.8006 100 23.5106C100 10.5591 88.0703 0 73.4375 0H50H26.5625ZM26.5625 5.53191H46.875V41.4894H26.5625C15.3077 41.4894 6.25 33.4723 6.25 23.5106C6.25 13.549 15.3077 5.53191 26.5625 5.53191ZM53.125 5.53191H73.4375C84.6923 5.53191 93.75 13.549 93.75 23.5106C93.75 33.4723 84.6923 41.4894 73.4375 41.4894H53.125V5.53191ZM26.5625 47.0213H46.875V82.9787H26.5625C15.3077 82.9787 6.25 74.9616 6.25 65C6.25 55.0383 15.3077 47.0213 26.5625 47.0213ZM53.125 47.0213H63.5742C59.0901 49.1128 55.488 52.301 53.125 56.2699V47.0213ZM75 49.7872C85.3924 49.7872 93.75 57.1846 93.75 66.383C93.75 75.5813 85.3924 82.9787 75 82.9787C64.6076 82.9787 56.25 75.5813 56.25 66.383C56.25 57.1846 64.6076 49.7872 75 49.7872ZM26.5625 88.5106H46.875V106.489C46.875 116.451 37.8172 124.468 26.5625 124.468C15.3077 124.468 6.25 116.451 6.25 106.489C6.25 96.5277 15.3077 88.5106 26.5625 88.5106Z" fill="#212121"/>
</svg>
