<svg width="120" height="120" viewBox="0 0 120 120" fill="none" xmlns="http://www.w3.org/2000/svg">
<path d="M7.62277 0C3.44866 0 0 3.44866 0 7.62277V112.377C0 116.551 3.44866 120 7.62277 120H112.377C116.551 120 120 116.563 120 112.377V7.62277C120 3.44866 116.563 0 112.377 0H7.62277ZM7.62277 5.71429H112.377C113.437 5.71429 114.286 6.56251 114.286 7.62277V112.377C114.286 113.437 113.438 114.286 112.377 114.286H7.62277C6.56251 114.286 5.71429 113.438 5.71429 112.377V7.62277C5.71429 6.56251 6.56251 5.71429 7.62277 5.71429ZM54.2857 54.2857V90.2121C54.2857 95.7255 52.1987 97.1429 48.5714 97.1429C44.7768 97.1429 42.1429 94.7768 40.4018 91.7076L31.4286 97.1429C34.0291 102.645 40.4018 108.571 49.2411 108.571C59.0179 108.571 65.7143 103.371 65.7143 91.9531V54.2857H54.2857ZM89.8661 54.2857C80.1339 54.2857 73.8951 60.5134 73.8951 68.6942C73.8951 77.567 79.1295 81.7634 86.9978 85.1116L89.721 86.2835C94.6875 88.4598 97.1429 89.7879 97.1429 93.5268C97.1429 96.6406 94.7769 98.8951 90.2567 98.8951C84.8773 98.8951 82.3326 95.2456 80.0001 91.4286L71.4286 97.1429C74.6317 103.471 80.3795 108.571 90.5023 108.571C100.859 108.571 108.571 103.192 108.571 93.3817C108.571 84.2746 103.348 80.2232 94.0737 76.25L91.3505 75.0893C86.6742 73.0581 84.6429 71.7411 84.6429 68.471C84.6429 65.8259 86.6742 63.7947 89.8661 63.7947C93.0023 63.7947 95.0112 65.1228 96.8751 68.471L105.368 63.0246C101.786 56.6965 96.7969 54.2857 89.8661 54.2857Z" fill="#212121"/>
</svg>
