<svg width="22" height="22" viewBox="0 0 22 22" fill="none" xmlns="http://www.w3.org/2000/svg">
<path d="M11 0C9.03467 0 7.43967 1.64522 7.36083 3.67687C5.71732 4.40927 4.31678 5.63029 3.33383 7.1877C2.35089 8.7451 1.82903 10.57 1.83333 12.4348C1.83333 12.5974 1.826 12.7791 1.83333 12.9733C0.747083 13.639 0 14.8596 0 16.2609C0 18.3623 1.65275 20.087 3.66667 20.087C4.19375 20.087 4.7025 19.9703 5.15625 19.7579C6.74483 21.1506 8.8165 22 11 22C13.1835 22 15.2552 21.1506 16.8438 19.7579C17.3127 19.9751 17.8202 20.0872 18.3333 20.087C20.3472 20.087 22 18.3623 22 16.2609C22 14.8452 21.2437 13.6046 20.1392 12.9417C20.1529 12.7887 20.1667 12.6357 20.1667 12.4348C20.171 10.57 19.6491 8.7451 18.6662 7.1877C17.6832 5.63029 16.2827 4.40927 14.6392 3.67687C14.5594 1.64522 12.9644 0 11 0ZM11 1.91304C12.023 1.91304 12.8333 2.75861 12.8333 3.82609C12.8333 4.89357 12.023 5.73913 11 5.73913C9.977 5.73913 9.16667 4.89357 9.16667 3.82609C9.16667 2.75861 9.977 1.91304 11 1.91304ZM7.76417 5.58991C8.37833 6.80852 9.5975 7.65217 11 7.65217C12.4025 7.65217 13.6217 6.80852 14.2358 5.58991C15.4662 6.21374 16.5033 7.18677 17.228 8.39742C17.9527 9.60808 18.3358 11.0073 18.3333 12.4348C16.3194 12.4348 14.6667 14.1594 14.6667 16.2609C14.6667 17.117 14.9508 17.8927 15.4119 18.5326C14.1397 19.5322 12.5925 20.0773 11 20.087C9.40746 20.0773 7.86033 19.5322 6.58808 18.5326C7.06782 17.8807 7.3296 17.0828 7.33333 16.2609C7.33333 14.1594 5.68058 12.4348 3.66667 12.4348C3.66667 9.45043 5.3075 6.83339 7.76417 5.58991ZM3.66667 14.3478C4.68967 14.3478 5.5 15.1934 5.5 16.2609C5.5 17.3283 4.68967 18.1739 3.66667 18.1739C2.64367 18.1739 1.83333 17.3283 1.83333 16.2609C1.83333 15.1934 2.64367 14.3478 3.66667 14.3478ZM18.3333 14.3478C19.3563 14.3478 20.1667 15.1934 20.1667 16.2609C20.1667 17.3283 19.3563 18.1739 18.3333 18.1739C17.3103 18.1739 16.5 17.3283 16.5 16.2609C16.5 15.1934 17.3103 14.3478 18.3333 14.3478Z" fill="white"/>
</svg>
