<svg width="51" height="51" viewBox="0 0 51 51" fill="none" xmlns="http://www.w3.org/2000/svg">
<path d="M43.0466 3.33447C44.3696 3.33447 45.6385 3.86004 46.574 4.79556C47.5095 5.73107 48.0351 6.99991 48.0351 8.32293V43.2421C48.0351 44.5651 47.5095 45.834 46.574 46.7695C45.6385 47.705 44.3696 48.2306 43.0466 48.2306H8.12743C6.80441 48.2306 5.53558 47.705 4.60006 46.7695C3.66454 45.834 3.13898 44.5651 3.13898 43.2421V8.32293C3.13898 6.99991 3.66454 5.73107 4.60006 4.79556C5.53558 3.86004 6.80441 3.33447 8.12743 3.33447H43.0466ZM41.7995 41.995V28.7756C41.7995 26.6191 40.9428 24.5509 39.4179 23.026C37.893 21.5011 35.8248 20.6444 33.6683 20.6444C31.5482 20.6444 29.0789 21.9414 27.8817 23.8869V21.1183H20.9228V41.995H27.8817V29.6985C27.8817 27.7779 29.4281 26.2065 31.3487 26.2065C32.2748 26.2065 33.163 26.5744 33.8178 27.2293C34.4727 27.8842 34.8406 28.7723 34.8406 29.6985V41.995H41.7995ZM12.8166 17.2024C13.9279 17.2024 14.9937 16.7609 15.7796 15.9751C16.5654 15.1892 17.0069 14.1234 17.0069 13.0121C17.0069 10.6924 15.1362 8.79683 12.8166 8.79683C11.6986 8.79683 10.6265 9.24093 9.83595 10.0314C9.04544 10.822 8.60133 11.8941 8.60133 13.0121C8.60133 15.3317 10.4969 17.2024 12.8166 17.2024ZM16.2836 41.995V21.1183H9.37454V41.995H16.2836Z" fill="white"/>
</svg>
