<svg width="154" height="154" viewBox="0 0 154 154" fill="none" xmlns="http://www.w3.org/2000/svg">
<path d="M76.9534 64.1278C91.1201 64.1278 102.605 52.6434 102.605 38.4767C102.605 24.31 91.1201 12.8256 76.9534 12.8256C62.7867 12.8256 51.3023 24.31 51.3023 38.4767C51.3023 52.6434 62.7867 64.1278 76.9534 64.1278Z" stroke="#101010" stroke-width="6"/>
<path d="M128.243 115.43C128.251 114.378 128.256 113.31 128.256 112.224C128.256 96.288 105.285 83.3662 76.9534 83.3662C48.6217 83.3662 25.6512 96.288 25.6512 112.224C25.6512 128.16 25.6512 141.081 76.9534 141.081C91.2604 141.081 101.579 140.074 109.017 138.279" stroke="#101010" stroke-width="6" stroke-linecap="round"/>
</svg>
